<svg xmlns="http://www.w3.org/2000/svg" width="466.617" height="99.119" viewBox="0 0 466.617 99.119">
  <g id="1342" data-name="组 1342" transform="translate(-69.5 -403)">
    <path id="5000" data-name="5000" d="M113.238,321.186h-29L36.44,420.305H66.412l9.56-21.3h.021l22.1-49.5h1.617l21.824,49.5H121.5l9.56,21.3h30.132Z" transform="translate(33.06 81.814)" fill="#542cbd"/>
    <path id="5001" data-name="5001" d="M232.853,368.839,272.412,420.3h-30.3l-23.846-33.614L195.537,420.3h-30.3L204.378,368.1l-37.034-46.912h30.019l21.881,29.551,21.044-29.551h29.877Z" transform="translate(33.06 81.814)" fill="#542cbd"/>
    <path id="5002" data-name="5002" d="M317.3,397.653a11.208,11.208,0,0,1-11.208-11.208V321.186h-22.95V389.3a31.1,31.1,0,0,0,31.2,31h26.285V397.653Z" transform="translate(33.06 81.814)" fill="#4a79f5"/>
    <path id="5003" data-name="5003" d="M377.488,420.3H354.837V397.653h22.651Z" transform="translate(33.06 81.814)" fill="#bf6bc4"/>
    <path id="5004" data-name="5004" d="M467.211,380.248H447.13V360.167h20.081Z" transform="translate(33.06 81.814)" fill="#88b563"/>
    <path id="5005" data-name="5005" d="M419.165,340.191h83.892V321.186H418.019A30.816,30.816,0,0,0,387.2,352h0a30.688,30.688,0,0,0,7.619,20.273A28.493,28.493,0,0,0,387.2,391.7h0a28.6,28.6,0,0,0,28.6,28.6h87.252V400.272H472.69v.009H419.165a10.016,10.016,0,0,1-10.017-10.016h0a10.017,10.017,0,0,1,10.017-10.017h18.46V360.224h-18.46a10.016,10.016,0,1,1,0-20.033Z" transform="translate(33.06 81.814)" fill="#4a79f5"/>
  </g>
</svg>
